<?xml version="1.0" encoding="utf-8"?>
<!-- Generator: Adobe Illustrator 25.1.0, SVG Export Plug-In . SVG Version: 6.00 Build 0)  -->
<svg version="1.1" xmlns="http://www.w3.org/2000/svg" xmlns:xlink="http://www.w3.org/1999/xlink" x="0px" y="0px"
	 viewBox="0 0 1200 600" style="enable-background:new 0 0 1200 600;" xml:space="preserve">
<style type="text/css">
	.st0{fill:none;stroke:#000000;stroke-width:4;stroke-miterlimit:10;}
</style>
<g id="Layer_3">
</g>
<g id="Layer_2">
	<path class="st0" d="M5.1,444.4c-4.5,0-11.8-1.2-22.9-11.2c-9-8.2-10-15.1-10-19.5c0-16,15-38.6,41.1-62
		c26.9-24.2,53.6-56.4,66.3-80.2c12.6-23.5,20.9-64.1,29.8-107c3.6-17.6,7.1-34.3,10.6-48.8c3.6-14.8,13.2-22.4,28.5-22.4
		c17.4,0,38,11.3,42.6,30.1c1.7,7.2,3.4,14.3,4.9,21.2c11.2,49.1,21.7,95.4,66.8,152.8c14.2,18.1,19.5,38.9,13.5,52.8
		c-5.7,13.3-20.9,17.3-32.5,18.3c-12.3,1.1-26,2.4-40.5,3.7c-17.2,1.6-34.9,3.3-50,4.6c-41.3,3.5-73.5,25.5-99.4,43.2
		C35.6,432.6,18.3,444.4,5.1,444.4C5.1,444.4,5.1,444.4,5.1,444.4z"/>
</g>
<g id="Layer_4">
</g>
<g id="Layer_6">
</g>
<g id="Layer_1">
</g>
<g id="Layer_5">
</g>
</svg>
