# Blender v2.91.0 OBJ File: ''
# www.blender.org
mtllib spike.mtl
o spike
v 0.079689 -0.599994 -1.372525
v 0.132003 -0.599994 -1.327667
v 0.180225 -0.599995 -0.887817
v 0.014300 -0.599994 -1.439832
v 0.186944 -0.599994 -1.286840
v 0.265505 -0.599994 -1.239678
v 0.350483 -0.599995 -1.200314
v 0.442541 -0.599995 -1.168594
v 0.529091 -0.599995 -1.146702
v 0.588697 -0.599995 -1.136187
v 0.672066 -0.599995 -1.125329
v 0.793691 -0.599995 -1.113019
v 0.850707 -0.599995 -1.107157
v 1.072656 -0.599995 -1.067089
v 0.907211 -0.599995 -1.099900
v 0.736698 -0.599995 -1.118879
v 1.198057 -0.599995 -1.033063
v 1.267981 -0.599995 -1.009283
v 1.126606 -0.599995 -1.053051
v 1.320420 -0.599995 -0.991449
v 1.505767 -0.599995 -0.909422
v 1.371373 -0.599995 -0.970009
v 1.439300 -0.599995 -0.941425
v 0.686811 -0.599995 -0.410172
v 1.571674 -0.599995 -0.876315
v 1.636129 -0.599995 -0.839983
v 1.762521 -0.599995 -0.762204
v 1.700092 -0.599995 -0.802580
v 1.945175 -0.599995 -0.631321
v 1.824589 -0.599995 -0.720736
v 1.885123 -0.599995 -0.676501
v 2.076424 -0.599995 -0.522670
v 2.032835 -0.599995 -0.559178
v 1.989247 -0.599995 -0.595687
v 2.118572 -0.599995 -0.483735
v 2.174764 -0.599995 -0.431825
v 0.106253 -0.599995 0.145975
v 2.229552 -0.599995 -0.377658
v 1.367799 -0.599995 0.097908
v 2.283837 -0.599995 -0.322771
v 2.325549 -0.599995 -0.277791
v 2.365290 -0.599995 -0.232064
v 2.413735 -0.599995 -0.168407
v 0.697787 -0.599996 0.411296
v 2.456306 -0.599995 -0.096245
v 2.483657 -0.599995 0.037865
v 2.475192 -0.599995 -0.046549
v 2.029808 -0.599996 0.592192
v 2.375515 -0.599995 0.256089
v 2.461689 -0.599995 0.123145
v 2.421998 -0.599995 0.193976
v 2.228783 -0.599996 0.411274
v 2.277065 -0.599996 0.363048
v 2.323022 -0.599996 0.315717
v 2.097113 -0.599996 0.533892
v 2.163824 -0.599996 0.474378
v 1.367208 -0.599996 0.997722
v 1.783913 -0.599996 0.774671
v 1.908947 -0.599996 0.687789
v 1.960748 -0.599996 0.646816
v 1.710635 -0.599996 0.820524
v 1.636762 -0.599996 0.865101
v 1.082696 -0.599996 1.098368
v 1.561061 -0.599996 0.905798
v 1.503826 -0.599996 0.935352
v 1.445970 -0.599996 0.963591
v 0.826820 -0.599996 1.158595
v 1.226830 -0.599996 1.052106
v 1.287789 -0.599996 1.030525
v 1.165872 -0.599996 1.073687
v 0.738532 -0.599996 1.172117
v 0.581596 -0.599996 1.190434
v 0.913179 -0.599996 1.140833
v 0.998889 -0.599996 1.121685
v 0.649602 -0.599996 1.184225
v 0.962695 -0.599995 -1.089851
v 1.018178 -0.599995 -1.079802
v 0.079689 0.600006 -1.372525
v 0.180225 0.600005 -0.887817
v 0.132003 0.600006 -1.327667
v 0.014300 0.600006 -1.439832
v 0.186944 0.600006 -1.286840
v 0.265505 0.600006 -1.239678
v 0.350483 0.600006 -1.200314
v 0.442541 0.600005 -1.168594
v 0.529091 0.600005 -1.146702
v 0.588697 0.600005 -1.136187
v 0.672066 0.600005 -1.125329
v 0.793691 0.600005 -1.113019
v 1.072656 0.600005 -1.067089
v 0.850707 0.600005 -1.107157
v 0.907211 0.600005 -1.099900
v 0.736698 0.600005 -1.118879
v 1.267981 0.600005 -1.009283
v 1.198057 0.600005 -1.033063
v 1.126606 0.600005 -1.053051
v 1.320420 0.600005 -0.991449
v 1.505767 0.600005 -0.909422
v 1.371373 0.600005 -0.970009
v 1.439300 0.600005 -0.941425
v 0.686811 0.600005 -0.410172
v 1.636129 0.600005 -0.839983
v 1.571674 0.600005 -0.876315
v 1.762521 0.600005 -0.762204
v 1.700092 0.600005 -0.802580
v 1.945175 0.600005 -0.631321
v 1.885123 0.600005 -0.676501
v 1.824589 0.600005 -0.720736
v 2.076424 0.600005 -0.522670
v 2.032835 0.600005 -0.559178
v 1.989247 0.600005 -0.595687
v 2.174764 0.600005 -0.431825
v 2.118572 0.600005 -0.483735
v 0.106253 0.600005 0.145975
v 2.229552 0.600005 -0.377658
v 1.367799 0.600005 0.097908
v 2.283837 0.600005 -0.322771
v 2.325549 0.600005 -0.277791
v 2.365290 0.600005 -0.232064
v 2.413735 0.600005 -0.168407
v 0.697787 0.600004 0.411296
v 2.456306 0.600005 -0.096245
v 2.483657 0.600005 0.037865
v 2.475192 0.600005 -0.046549
v 2.029808 0.600004 0.592192
v 2.375515 0.600004 0.256089
v 2.461689 0.600005 0.123145
v 2.421998 0.600005 0.193976
v 2.228783 0.600004 0.411274
v 2.277065 0.600004 0.363048
v 2.323022 0.600004 0.315717
v 2.097113 0.600004 0.533892
v 2.163824 0.600004 0.474378
v 1.367208 0.600004 0.997722
v 1.783913 0.600004 0.774671
v 1.908947 0.600004 0.687789
v 1.960748 0.600004 0.646816
v 1.636762 0.600004 0.865101
v 1.710635 0.600004 0.820524
v 1.082696 0.600004 1.098368
v 1.561061 0.600004 0.905798
v 1.503826 0.600004 0.935352
v 1.445970 0.600004 0.963591
v 0.826820 0.600004 1.158595
v 1.226830 0.600004 1.052106
v 1.287789 0.600004 1.030525
v 1.165872 0.600004 1.073687
v 0.738532 0.600004 1.172117
v 0.581596 0.600004 1.190434
v 0.913179 0.600004 1.140833
v 0.998889 0.600004 1.121685
v 0.649602 0.600004 1.184225
v 1.018178 0.600005 -1.079802
v 0.962695 0.600005 -1.089851
v 0.042024 -0.599996 1.401959
v -0.005131 0.600004 1.476828
v -0.005131 -0.599996 1.476828
v 0.444290 0.600004 1.199977
v 0.444290 -0.599996 1.199977
v 0.221644 -0.599996 1.247687
v 0.166990 0.600004 1.278667
v 0.166990 -0.599996 1.278667
v 0.281986 -0.599996 1.225419
v 0.221644 0.600004 1.247687
v 0.370837 -0.599996 1.206541
v 0.281986 0.600004 1.225419
v 0.100910 0.600004 1.332386
v 0.100910 -0.599996 1.332386
v 0.370837 0.600004 1.206541
v 0.042024 0.600004 1.401959
v -0.005966 -0.563601 1.478305
v -0.005966 0.600004 1.478305
v -0.005966 0.600004 1.477089
v -0.005966 0.600004 1.423264
v -0.005966 0.600004 1.388759
v -0.005966 0.600004 1.115050
v -0.005966 0.600004 1.042252
v -0.005966 0.600004 1.007986
v -0.005966 0.600004 0.984390
v -0.005966 0.600004 0.963437
v -0.005966 0.600004 0.952906
v -0.005966 0.600004 0.939601
v -0.005966 0.600004 0.828279
v -0.005966 0.600004 0.524568
v -0.005966 0.600005 0.172488
v -0.005966 0.600005 0.017226
v -0.005966 0.600005 -0.820427
v -0.005966 0.600005 -1.032684
v -0.005966 0.600006 -1.437028
v -0.005966 0.600006 -1.464847
v -0.005966 0.203067 -1.464847
v -0.005966 -0.599994 -1.464847
v -0.005966 -0.599994 -1.437028
v -0.005966 -0.599995 -1.032684
v -0.005966 -0.599995 -0.820427
v -0.005966 -0.599995 0.017226
v -0.005966 -0.599995 0.172488
v -0.005966 -0.599996 0.524568
v -0.005966 -0.599996 0.828279
v -0.005966 -0.599996 0.939601
v -0.005966 -0.599996 0.952906
v -0.005966 -0.599996 0.963437
v -0.005966 -0.599996 0.984390
v -0.005966 -0.599996 1.007986
v -0.005966 -0.599996 1.042252
v -0.005966 -0.599996 1.115050
v -0.005966 -0.599996 1.388759
v -0.005966 -0.599996 1.423264
v -0.005966 -0.599996 1.477089
v -0.005966 -0.599996 1.478305
vn 0.0000 -1.0000 -0.0000
vn 0.0000 -1.0000 -0.0001
vn -0.0001 -1.0000 -0.0001
vn -0.0002 -1.0000 -0.0002
vn -0.0000 1.0000 0.0000
vn -0.0000 1.0000 0.0001
vn -0.0001 1.0000 -0.0000
vn 0.0000 1.0000 -0.0001
vn 0.7958 0.0000 -0.6056
vn 0.6012 0.0000 -0.7991
vn 0.3220 0.0000 -0.9467
vn 0.5304 -0.0000 0.8477
vn 0.7067 -0.0000 0.7075
vn 0.7548 0.0000 -0.6560
vn 0.2694 0.0000 -0.9630
vn 0.6657 -0.0000 0.7462
vn 0.6204 -0.0000 0.7843
vn 0.9348 0.0000 -0.3552
vn 0.4588 -0.0000 0.8885
vn 0.4910 0.0000 -0.8711
vn 0.4489 0.0000 -0.8936
vn 0.7174 -0.0000 0.6966
vn 0.4735 -0.0000 0.8808
vn 0.4338 0.0000 -0.9010
vn 0.1292 0.0000 -0.9916
vn 0.8613 -0.0000 -0.5081
vn 0.5965 0.0000 -0.8026
vn 0.6547 -0.0000 0.7559
vn 0.3337 -0.0000 0.9427
vn 0.1782 0.0000 -0.9840
vn 0.2180 -0.0000 0.9759
vn 0.0909 -0.0000 0.9959
vn 0.1514 -0.0000 0.9885
vn 0.5900 0.0000 -0.8074
vn 0.3879 0.0000 -0.9217
vn 0.3976 -0.0000 0.9176
vn 0.4386 -0.0000 0.8987
vn 0.5167 -0.0000 0.8562
vn 0.6786 0.0000 -0.7345
vn 0.6968 -0.0000 0.7173
vn 0.1023 0.0000 -0.9948
vn 0.9684 0.0000 0.2495
vn 0.1349 -0.0000 0.9909
vn 0.2015 -0.0000 0.9795
vn 0.8462 -0.0000 0.5329
vn 0.0693 -0.0000 0.9976
vn 0.1274 0.0000 -0.9919
vn 0.6421 0.0000 -0.7666
vn 0.2845 -0.0000 0.9587
vn 0.6786 0.0000 -0.7346
vn 0.1737 0.0000 -0.9848
vn 0.5048 0.0000 -0.8632
vn 0.7031 0.0000 -0.7111
vn 0.2273 0.0000 -0.9738
vn 0.2518 0.0000 -0.9678
vn 0.8724 -0.0000 0.4888
vn 0.7332 0.0000 -0.6800
vn 0.4931 -0.0000 0.8700
vn 0.3462 -0.0000 0.9382
vn 0.2078 -0.0000 0.9782
vn 0.5431 0.0000 -0.8397
vn 0.6308 -0.0000 0.7759
vn 0.7506 -0.0000 0.6608
vn 0.7110 0.0000 -0.7032
vn 0.5555 0.0000 -0.8315
vn 0.7173 0.0000 -0.6968
vn 0.0993 0.0000 -0.9951
vn 0.0890 -0.0000 0.9960
vn 0.7633 -0.0000 0.6460
vn 0.9950 0.0000 -0.0998
vn 0.3878 0.0000 -0.9217
vn 0.8006 -0.0000 0.5992
vn 0.3258 0.0000 -0.9454
vn 0.3818 -0.0000 0.9243
vn 0.5706 -0.0000 0.8212
vn 0.6509 0.0000 -0.7591
vn 0.2680 -0.0000 0.9634
vn 0.4203 0.0000 -0.9074
vn 0.6287 0.0000 -0.7776
vn 0.2452 0.0000 -0.9695
vn 0.5147 0.0000 -0.8574
vn 0.5305 -0.0000 0.8477
vn 0.1291 0.0000 -0.9916
vn -1.0000 0.0000 0.0000
vn 0.7770 0.0000 -0.6295
vn 0.8705 0.0000 0.4921
vn 0.8705 -0.0000 0.4922
usemtl Default_OBJ
s off
f 1//1 2//1 3//1
f 4//1 1//1 3//1
f 3//1 2//1 5//1
f 5//1 6//1 3//1
f 3//1 6//1 7//1
f 7//1 8//1 3//1
f 9//1 3//1 8//1
f 9//1 10//1 3//1
f 11//1 3//1 10//1
f 12//1 13//1 14//1
f 14//1 13//1 15//1
f 11//1 16//1 3//1
f 16//1 12//1 14//1
f 14//1 17//1 18//1
f 3//1 16//1 14//1
f 14//1 19//1 17//1
f 18//1 20//1 14//1
f 20//1 21//1 14//1
f 20//1 22//1 21//1
f 22//2 23//2 21//2
f 14//1 24//1 3//1
f 21//1 25//1 26//1
f 21//1 27//1 14//1
f 26//1 28//1 27//1
f 29//2 30//2 31//2
f 14//1 27//1 24//1
f 26//1 27//1 21//1
f 32//1 30//1 33//1
f 33//1 30//1 34//1
f 34//1 30//1 29//1
f 30//1 35//1 36//1
f 24//1 37//1 3//1
f 32//1 35//1 30//1
f 38//1 30//1 36//1
f 27//1 30//1 39//1
f 30//1 38//1 40//1
f 27//1 39//1 24//1
f 41//1 42//1 40//1
f 42//1 43//1 40//1
f 37//1 24//1 44//1
f 39//1 30//1 40//1
f 45//1 40//1 43//1
f 46//1 45//1 47//1
f 44//1 24//1 39//1
f 39//1 40//1 48//1
f 48//1 40//1 49//1
f 40//1 45//1 49//1
f 45//1 46//1 49//1
f 46//1 50//1 49//1
f 49//1 50//1 51//1
f 52//1 48//1 49//1
f 52//3 49//3 53//3
f 53//4 49//4 54//4
f 55//1 52//1 56//1
f 55//1 48//1 52//1
f 48//1 57//1 39//1
f 44//1 39//1 57//1
f 58//1 57//1 59//1
f 59//1 57//1 60//1
f 48//1 60//1 57//1
f 58//1 61//1 62//1
f 57//1 58//1 62//1
f 63//1 44//1 57//1
f 64//1 65//1 57//1
f 64//1 57//1 62//1
f 66//1 57//1 65//1
f 63//1 67//1 44//1
f 68//1 57//1 69//1
f 57//1 68//1 70//1
f 70//1 63//1 57//1
f 71//1 72//1 44//1
f 44//1 67//1 71//1
f 73//1 67//1 63//1
f 74//1 73//1 63//1
f 72//1 71//1 75//1
f 14//1 76//1 77//1
f 14//1 15//1 76//1
f 78//5 79//5 80//5
f 81//5 79//5 78//5
f 79//5 82//5 80//5
f 82//5 79//5 83//5
f 79//5 84//5 83//5
f 84//5 79//5 85//5
f 86//5 85//5 79//5
f 86//5 79//5 87//5
f 88//5 87//5 79//5
f 89//5 90//5 91//5
f 90//5 92//5 91//5
f 88//5 79//5 93//5
f 93//5 90//5 89//5
f 90//5 94//5 95//5
f 79//5 90//5 93//5
f 90//5 95//5 96//5
f 94//5 90//5 97//5
f 97//5 90//5 98//5
f 97//5 98//5 99//5
f 99//5 98//5 100//5
f 90//5 79//5 101//5
f 98//5 102//5 103//5
f 98//5 90//5 104//5
f 102//5 104//5 105//5
f 106//5 107//5 108//5
f 90//5 101//5 104//5
f 102//5 98//5 104//5
f 109//6 110//6 108//6
f 110//5 111//5 108//5
f 111//5 106//5 108//5
f 108//5 112//5 113//5
f 101//5 79//5 114//5
f 109//5 108//5 113//5
f 115//5 112//5 108//5
f 104//5 116//5 108//5
f 108//5 117//5 115//5
f 104//5 101//5 116//5
f 118//5 117//5 119//5
f 119//5 117//5 120//5
f 114//5 121//5 101//5
f 116//5 117//5 108//5
f 122//5 120//5 117//5
f 123//5 124//5 122//5
f 121//5 116//5 101//5
f 116//5 125//5 117//5
f 125//5 126//5 117//5
f 117//5 126//5 122//5
f 122//5 126//5 123//5
f 123//5 126//5 127//5
f 126//7 128//7 127//7
f 129//5 126//5 125//5
f 129//5 130//5 126//5
f 130//5 131//5 126//5
f 132//5 133//5 129//5
f 132//5 129//5 125//5
f 125//5 116//5 134//5
f 121//5 134//5 116//5
f 135//5 136//5 134//5
f 136//5 137//5 134//5
f 125//5 134//5 137//5
f 135//8 138//8 139//8
f 134//5 138//5 135//5
f 140//5 134//5 121//5
f 141//5 134//5 142//5
f 141//5 138//5 134//5
f 143//5 142//5 134//5
f 140//5 121//5 144//5
f 145//5 146//5 134//5
f 134//5 147//5 145//5
f 147//5 134//5 140//5
f 148//5 121//5 149//5
f 121//5 148//5 144//5
f 150//5 140//5 144//5
f 151//5 140//5 150//5
f 149//5 152//5 148//5
f 90//5 153//5 154//5
f 90//5 154//5 92//5
f 42//9 120//9 43//9
f 31//10 106//10 29//10
f 18//11 95//11 94//11
f 58//12 139//12 61//12
f 18//11 97//11 20//11
f 53//13 129//13 52//13
f 41//14 119//14 42//14
f 19//15 95//15 17//15
f 56//16 132//16 55//16
f 60//17 136//17 59//17
f 45//18 124//18 47//18
f 64//19 142//19 65//19
f 25//20 102//20 26//20
f 48//17 137//17 60//17
f 25//21 98//21 103//21
f 53//22 131//22 130//22
f 62//23 141//23 64//23
f 23//24 98//24 21//24
f 10//25 88//25 11//25
f 43//26 122//26 45//26
f 2//27 82//27 5//27
f 55//28 125//28 48//28
f 68//29 147//29 70//29
f 76//30 153//30 77//30
f 74//31 150//31 73//31
f 75//32 149//32 72//32
f 67//33 148//33 71//33
f 30//34 107//34 31//34
f 22//35 100//35 23//35
f 66//36 134//36 57//36
f 66//37 142//37 143//37
f 61//38 138//38 62//38
f 36//39 113//39 112//39
f 52//40 133//40 56//40
f 16//41 89//41 12//41
f 46//42 127//42 50//42
f 71//43 152//43 75//43
f 73//44 144//44 67//44
f 155//45 156//45 157//45
f 72//46 158//46 159//46
f 13//47 92//47 15//47
f 33//48 109//48 32//48
f 70//49 140//49 63//49
f 32//50 113//50 35//50
f 9//51 87//51 10//51
f 69//29 145//29 68//29
f 26//52 105//52 28//52
f 34//48 110//48 33//48
f 12//41 91//41 13//41
f 36//53 115//53 38//53
f 77//54 90//54 14//54
f 14//55 96//55 19//55
f 50//56 128//56 51//56
f 40//57 118//57 41//57
f 160//58 161//58 162//58
f 163//59 164//59 160//59
f 15//30 154//30 76//30
f 165//60 166//60 163//60
f 28//61 104//61 27//61
f 162//62 167//62 168//62
f 49//63 131//63 54//63
f 38//64 117//64 40//64
f 27//65 108//65 30//65
f 4//66 78//66 1//66
f 11//67 93//67 16//67
f 159//68 169//68 165//68
f 168//69 170//69 155//69
f 47//70 123//70 46//70
f 20//71 99//71 22//71
f 51//72 126//72 49//72
f 7//73 85//73 8//73
f 57//74 146//74 69//74
f 59//75 135//75 58//75
f 1//76 80//76 2//76
f 63//77 151//77 74//77
f 6//78 84//78 7//78
f 29//79 111//79 34//79
f 8//80 86//80 9//80
f 5//81 83//81 6//81
f 42//9 119//9 120//9
f 31//10 107//10 106//10
f 18//11 17//11 95//11
f 58//82 135//82 139//82
f 18//11 94//11 97//11
f 53//13 130//13 129//13
f 41//14 118//14 119//14
f 19//15 96//15 95//15
f 56//16 133//16 132//16
f 60//17 137//17 136//17
f 45//18 122//18 124//18
f 64//19 141//19 142//19
f 25//20 103//20 102//20
f 48//17 125//17 137//17
f 25//21 21//21 98//21
f 53//22 54//22 131//22
f 62//23 138//23 141//23
f 23//24 100//24 98//24
f 10//83 87//83 88//83
f 43//26 120//26 122//26
f 2//27 80//27 82//27
f 55//28 132//28 125//28
f 68//29 145//29 147//29
f 76//30 154//30 153//30
f 74//31 151//31 150//31
f 75//32 152//32 149//32
f 67//33 144//33 148//33
f 30//34 108//34 107//34
f 22//35 99//35 100//35
f 66//36 143//36 134//36
f 66//37 65//37 142//37
f 61//38 139//38 138//38
f 36//39 35//39 113//39
f 52//40 129//40 133//40
f 16//41 93//41 89//41
f 46//42 123//42 127//42
f 71//43 148//43 152//43
f 73//44 150//44 144//44
f 155//45 170//45 156//45
f 72//46 149//46 158//46
f 13//47 91//47 92//47
f 33//48 110//48 109//48
f 70//49 147//49 140//49
f 32//50 109//50 113//50
f 9//51 86//51 87//51
f 69//29 146//29 145//29
f 26//52 102//52 105//52
f 34//48 111//48 110//48
f 12//41 89//41 91//41
f 36//53 112//53 115//53
f 77//54 153//54 90//54
f 14//55 90//55 96//55
f 50//56 127//56 128//56
f 40//57 117//57 118//57
f 160//58 164//58 161//58
f 163//59 166//59 164//59
f 15//30 92//30 154//30
f 165//60 169//60 166//60
f 28//61 105//61 104//61
f 162//62 161//62 167//62
f 49//63 126//63 131//63
f 38//64 115//64 117//64
f 27//65 104//65 108//65
f 4//66 81//66 78//66
f 11//67 88//67 93//67
f 159//68 158//68 169//68
f 168//69 167//69 170//69
f 47//70 124//70 123//70
f 20//71 97//71 99//71
f 51//72 128//72 126//72
f 7//73 84//73 85//73
f 57//74 134//74 146//74
f 59//75 136//75 135//75
f 1//76 78//76 80//76
f 63//77 140//77 151//77
f 6//78 83//78 84//78
f 29//79 106//79 111//79
f 8//80 85//80 86//80
f 5//81 82//81 83//81
f 187//84 188//84 191//84
f 192//1 4//1 193//1
f 4//1 194//1 193//1
f 194//1 3//1 195//1
f 3//1 196//1 195//1
f 196//1 37//1 197//1
f 197//1 37//1 198//1
f 44//1 198//1 37//1
f 200//1 159//1 201//1
f 199//1 72//1 200//1
f 162//1 206//1 205//1
f 202//1 163//1 203//1
f 201//1 165//1 202//1
f 206//1 168//1 207//1
f 207//1 155//1 208//1
f 208//1 157//1 209//1
f 209//1 157//1 210//1
f 160//1 205//1 204//1
f 163//1 204//1 203//1
f 190//5 189//5 81//5
f 81//5 188//5 79//5
f 188//5 187//5 79//5
f 79//5 186//5 114//5
f 186//5 185//5 114//5
f 185//5 184//5 114//5
f 121//5 184//5 183//5
f 158//5 182//5 181//5
f 149//5 183//5 182//5
f 161//5 176//5 167//5
f 166//5 180//5 179//5
f 169//5 181//5 180//5
f 176//5 175//5 167//5
f 170//5 175//5 174//5
f 156//5 174//5 173//5
f 173//5 172//5 156//5
f 164//5 177//5 161//5
f 166//5 178//5 164//5
f 4//85 191//85 81//85
f 171//86 210//86 157//86
f 81//85 191//85 190//85
f 156//87 171//87 157//87
f 210//84 171//84 209//84
f 171//84 172//84 173//84
f 173//84 174//84 171//84
f 174//84 175//84 171//84
f 171//84 175//84 176//84
f 209//84 171//84 208//84
f 207//84 208//84 171//84
f 207//84 171//84 206//84
f 176//84 177//84 206//84
f 205//84 206//84 177//84
f 177//84 178//84 205//84
f 178//84 179//84 204//84
f 205//84 178//84 204//84
f 171//84 176//84 206//84
f 203//84 204//84 179//84
f 179//84 180//84 203//84
f 180//84 181//84 202//84
f 203//84 180//84 202//84
f 201//84 202//84 181//84
f 181//84 182//84 200//84
f 182//84 183//84 199//84
f 198//84 184//84 197//84
f 199//84 200//84 182//84
f 200//84 201//84 181//84
f 184//84 198//84 183//84
f 197//84 184//84 185//84
f 198//84 199//84 183//84
f 194//84 195//84 191//84
f 195//84 196//84 187//84
f 194//84 191//84 193//84
f 191//84 195//84 187//84
f 196//84 197//84 185//84
f 185//84 186//84 196//84
f 191//84 192//84 193//84
f 186//84 187//84 196//84
f 188//84 189//84 191//84
f 189//84 190//84 191//84
f 4//1 3//1 194//1
f 3//1 37//1 196//1
f 44//1 199//1 198//1
f 200//1 72//1 159//1
f 199//1 44//1 72//1
f 162//1 168//1 206//1
f 202//1 165//1 163//1
f 201//1 159//1 165//1
f 207//1 168//1 155//1
f 208//1 155//1 157//1
f 160//1 162//1 205//1
f 163//1 160//1 204//1
f 81//5 189//5 188//5
f 79//5 187//5 186//5
f 121//5 114//5 184//5
f 158//5 149//5 182//5
f 149//5 121//5 183//5
f 161//5 177//5 176//5
f 166//5 169//5 180//5
f 169//5 158//5 181//5
f 170//5 167//5 175//5
f 156//5 170//5 174//5
f 164//5 178//5 177//5
f 166//5 179//5 178//5
f 4//85 192//85 191//85
f 156//87 172//87 171//87
