# Blender v2.79 (sub 1) OBJ File: ''
# www.blender.org
v -0.312999 0.589794 -0.034401
v -0.302767 0.636124 -0.235007
v -0.260773 0.587458 -0.033146
v -0.058303 0.320395 -0.134188
v 0.051445 0.442110 -0.086323
v 0.261783 0.383764 -0.066939
v -0.254505 0.051215 0.187519
v -0.261377 0.000256 0.140113
v -0.277833 0.000000 0.177610
v -0.076101 0.228671 0.236461
v -0.050458 0.327805 0.256201
v -0.164568 0.206300 0.240451
v 0.287003 0.081617 -0.033403
v 0.284550 0.000000 0.080185
v 0.211216 0.000000 -0.005383
v 0.404489 0.077354 0.119341
v 0.429070 0.172948 0.103851
v 0.402980 0.159110 0.153588
v -0.279904 0.460002 0.297319
v -0.295837 0.432516 0.289435
v -0.268418 0.414509 0.218386
v -0.397498 0.286910 0.039040
v -0.359888 0.214004 0.022383
v -0.397716 0.299768 0.132849
v -0.334988 0.199375 0.156094
v 0.018597 0.062113 0.275535
v 0.085085 0.087876 0.308949
v -0.013035 0.078014 0.267513
v 0.002145 0.312252 0.315041
v 0.054386 0.359959 0.255402
v -0.121860 0.041582 0.237994
v -0.087242 0.026824 0.289062
v -0.036871 0.055559 0.298063
v -0.180586 0.453002 0.184988
v 0.026990 0.465339 0.199927
v 0.006353 0.518807 0.125018
v -0.064930 0.097388 0.210367
v 0.351360 0.123056 0.185045
v 0.355122 0.205523 0.114753
v 0.318365 0.137762 0.173958
v 0.261484 0.458692 0.132244
v 0.281455 0.438652 0.028866
v 0.236793 0.464160 -0.009197
v -0.276690 0.647740 -0.257515
v 0.016910 0.699047 -0.053406
v 0.040110 0.722743 -0.106567
v -0.028421 0.826544 -0.063973
v -0.346394 0.738922 -0.213256
v -0.272752 0.739133 -0.318880
v -0.331756 0.634219 -0.017609
v -0.334692 0.643900 0.197114
v -0.366243 0.655686 0.120059
v -0.409081 0.635231 0.093469
v 0.016362 0.822720 -0.143046
v -0.243954 0.657364 0.018636
v -0.000558 0.839301 -0.108799
v -0.124406 0.000000 0.245041
v -0.031262 0.306785 -0.186765
v -0.068302 0.245594 -0.190912
v -0.097012 0.263387 -0.127937
v -0.224288 0.119235 0.017427
v -0.282089 0.135872 0.095026
v -0.235278 0.068546 0.033147
v -0.281139 0.000000 -0.026886
v -0.294455 0.033256 0.048732
v -0.177840 0.602179 0.055152
v -0.100677 0.677539 0.030046
v -0.386584 0.404353 0.110235
v -0.380739 0.410002 0.040536
v -0.321979 0.395933 0.213885
v -0.269801 0.269315 0.253720
v -0.200184 0.080422 0.172147
v -0.420460 0.459815 0.244034
v -0.395180 0.436271 0.264242
v -0.261994 0.000000 0.242037
v 0.163925 0.000000 -0.111423
v 0.155025 0.046516 0.257049
v 0.284888 0.075612 0.183208
v 0.329111 0.066847 0.185173
v -0.192701 0.598559 0.007639
v -0.245249 0.616666 -0.008696
v -0.386028 0.526924 0.273348
v -0.348225 0.524836 0.303228
v -0.263214 0.795658 -0.326333
v -0.269255 0.651761 0.007288
v -0.244117 0.746008 -0.334977
v -0.051492 0.000000 0.309969
v -0.147279 0.516373 0.092999
v -0.185092 0.519469 -0.009915
v -0.327249 0.436600 -0.022224
v -0.404424 0.434609 0.043568
v -0.213524 0.053064 -0.026948
v -0.209003 0.157465 -0.041239
v -0.205692 0.126309 0.141203
v -0.237601 0.208670 0.237061
v 0.109761 0.000000 0.132991
v 0.178392 0.000000 0.028841
v 0.177670 0.000065 0.028965
v 0.270645 0.028882 0.163865
v -0.234235 0.667200 0.053439
v -0.326386 0.658488 0.014285
v 0.217282 0.096425 -0.132488
v 0.226265 0.062822 -0.096965
v -0.021121 0.057048 -0.146116
v -0.032964 0.211000 -0.205190
v 0.000103 0.281371 -0.205900
v -0.190201 0.106658 0.099244
v -0.034075 0.262381 0.316882
v 0.209467 0.474925 0.181174
v 0.234736 0.322022 0.262488
v -0.299791 0.804586 -0.304019
v -0.332873 0.791345 -0.275524
v -0.199910 0.654496 0.078799
v 0.351859 0.195420 0.030127
v 0.313623 0.304628 -0.062534
v 0.390488 0.136198 -0.006981
v 0.422873 0.136674 0.037104
v 0.403734 0.081071 0.037396
v -0.259330 0.691892 -0.311000
v -0.281950 0.672256 -0.295852
v 0.031995 0.808183 -0.150276
v 0.020661 0.822654 -0.136674
v -0.184621 0.075857 0.213080
v -0.238955 0.051067 0.243352
v -0.082173 0.782360 -0.012673
v 0.137948 0.536235 0.045058
v -0.115772 0.473012 -0.052121
v 0.179217 0.464533 -0.052274
v -0.186002 0.157159 0.205936
v -0.142331 0.072296 0.228608
v 0.355981 0.070440 -0.011880
v -0.321275 0.270207 -0.073273
v -0.265515 0.207990 -0.079572
v -0.228155 0.648801 0.183018
v 0.068451 0.205710 0.333662
v -0.223217 0.000000 0.270569
v 0.399289 0.206615 0.106039
v 0.042048 0.783511 -0.154376
v 0.411061 0.182742 0.031199
v -0.187141 0.063128 0.098882
v -0.311713 0.000000 0.043928
v -0.250303 0.000000 0.120798
v 0.040483 0.740131 -0.132765
v -0.143586 0.064626 -0.054025
v -0.145518 0.000000 -0.140012
v -0.174560 0.000000 -0.059721
v -0.103817 0.037834 -0.149399
v -0.085001 0.000000 -0.161749
v -0.381174 0.471243 -0.006595
v -0.227936 0.374398 -0.094468
v -0.096607 0.151303 -0.068640
v -0.090817 0.081819 -0.053601
v 0.211629 0.017768 0.236602
v 0.149332 0.000000 0.258265
v 0.032360 0.000000 0.285817
v -0.070726 0.076224 -0.111861
v -0.055694 0.071169 -0.131293
vn -0.0381 -0.9732 -0.2267
vn 0.1544 0.2379 -0.9589
vn -0.8218 0.4435 -0.3576
vn 0.0991 -0.2189 0.9707
vn 0.5564 -0.6804 -0.4769
vn 0.8917 -0.1607 0.4230
vn 0.7285 -0.5423 0.4186
vn -0.8811 -0.4688 0.0622
vn -0.8541 -0.5097 0.1033
vn -0.3549 -0.2518 0.9004
vn -0.2578 0.8520 0.4557
vn -0.4894 0.6913 0.5315
vn -0.0903 0.7987 0.5949
vn -0.2011 0.8576 0.4734
vn 0.1888 0.7152 0.6730
vn 0.0327 0.6475 0.7614
vn 0.5334 0.8437 -0.0605
vn 0.1901 -0.9447 -0.2673
vn 0.8040 0.3270 0.4966
vn -0.5280 -0.7646 -0.3697
vn -0.5709 0.7438 0.3475
vn -0.6629 0.4910 -0.5652
vn -0.7983 0.1478 0.5839
vn -0.7272 0.4738 -0.4967
vn -0.7523 0.4590 -0.4727
vn -0.5610 -0.7896 -0.2485
vn -0.5441 0.7285 -0.4162
vn 0.5835 -0.3539 0.7309
vn -0.9931 0.0893 -0.0760
vn -0.6930 -0.0596 0.7184
vn -0.5043 0.6236 -0.5973
vn 0.2831 -0.8980 0.3368
vn -0.7204 -0.6860 0.1020
vn 0.0000 -1.0000 0.0000
vn -0.0061 -0.7860 0.6182
vn -0.0407 0.0184 0.9990
vn 0.4095 0.4996 -0.7634
vn -0.6206 -0.0161 0.7840
vn 0.9304 0.3301 0.1592
vn -0.3206 0.2784 0.9054
vn 0.9247 0.1819 -0.3343
vn -0.5681 -0.4630 -0.6804
vn -0.9407 -0.0057 -0.3391
vn -0.9753 0.1662 -0.1458
vn -0.3694 -0.7621 0.5318
vn 0.1006 0.9927 0.0663
vn 0.4134 -0.8374 0.3577
vn 0.0278 0.9599 -0.2790
vn 0.6267 -0.4808 -0.6133
vn 0.1108 -0.3486 -0.9307
vn -0.2037 0.1884 -0.9607
vn -0.4020 0.1798 -0.8978
vn -0.8590 0.3121 0.4059
vn -0.8179 -0.2341 0.5255
vn 0.6868 0.4265 0.5886
vn -0.6304 -0.0853 -0.7715
vn 0.5195 -0.1669 0.8380
vn 0.9299 0.3614 0.0684
vn -0.8942 0.3236 0.3094
vn 0.9585 0.2763 -0.0699
vn 0.7773 -0.2705 -0.5681
vn -0.3365 -0.3008 -0.8924
vn 0.5418 0.7606 -0.3577
vn -0.4023 0.8804 0.2511
vn -0.3643 0.9255 0.1039
vn 0.3652 0.2953 0.8829
vn 0.5331 0.2369 0.8122
vn -0.1175 0.9442 -0.3076
vn 0.4793 0.6054 -0.6354
vn 0.6796 0.7149 0.1645
vn -0.0611 0.8550 -0.5150
vn -0.1008 0.4415 -0.8916
vn 0.4846 0.8614 -0.1522
vn -0.0538 -0.2910 0.9552
vn -0.0565 -0.5572 0.8284
vn -0.2379 0.7004 0.6729
vn -0.5954 0.6845 -0.4207
vn -0.3692 0.9222 -0.1147
vn 0.7177 -0.4062 -0.5657
vn 0.8249 -0.1689 -0.5395
vn 0.7936 -0.1710 -0.5840
vn -0.3380 0.0767 0.9380
vn -0.7026 -0.1775 0.6890
vn 0.0644 -0.0772 0.9949
vn 0.4710 -0.8379 -0.2757
vn 0.5513 -0.8332 -0.0429
vn -0.6508 0.7335 -0.1958
vn 0.6104 -0.6964 -0.3774
vn 0.7088 -0.6306 -0.3161
vn 0.0501 -0.8116 -0.5821
vn 0.6369 -0.2878 0.7152
vn 0.6557 -0.2579 0.7096
vn -0.6043 0.7951 0.0516
vn -0.6167 0.7857 -0.0498
vn 0.4992 -0.7173 0.4861
vn -0.8090 -0.3022 -0.5041
vn -0.6425 -0.5187 -0.5641
vn -0.7360 -0.6740 0.0633
vn 0.0687 0.6594 0.7486
vn -0.3032 -0.2786 0.9113
vn -0.3571 -0.2397 0.9028
vn -0.0010 -1.0000 0.0009
vn -0.0013 -1.0000 0.0006
vn 0.0014 -1.0000 0.0003
vn -0.9911 0.0715 0.1124
vn -0.8205 0.5125 0.2533
vn -0.4717 0.7277 0.4980
vn 0.2474 0.1472 0.9577
vn 0.2765 -0.1647 0.9468
vn 0.1044 0.3536 0.9295
vn 0.1411 0.3741 0.9166
vn -0.9028 0.3683 0.2220
vn -0.8855 0.3931 0.2477
vn -0.7835 0.1564 -0.6015
vn -0.8135 0.1177 -0.5696
vn 0.0991 0.9258 0.3649
vn 0.0111 0.6484 0.7613
vn 0.1200 0.7070 0.6970
vn 0.5637 0.8233 -0.0666
vn 0.4354 0.8842 0.1695
vn 0.2280 0.5117 0.8283
vn -0.2108 0.6563 0.7245
vn 0.6636 0.5544 0.5023
vn 0.8249 0.1306 0.5499
vn 0.8129 0.3438 0.4700
vn 0.8167 0.2018 0.5406
vn 0.3778 0.8927 -0.2456
vn 0.8630 0.2820 0.4192
vn 0.5461 0.2602 0.7963
vn -0.1528 -0.8677 0.4730
vn -0.0475 0.9920 -0.1166
vn 0.2064 0.9411 -0.2678
vn -0.7424 -0.4243 -0.5184
vn -0.6810 0.5855 0.4398
vn -0.4665 0.6175 0.6333
vn 0.4169 -0.9069 -0.0613
vn 0.3606 -0.9003 -0.2439
vn -0.6362 -0.2910 0.7145
vn -0.9386 -0.2632 -0.2232
vn -0.9849 -0.0679 -0.1593
vn -0.0481 0.5076 -0.8602
vn 0.1407 0.5900 -0.7951
vn -0.5245 -0.7273 -0.4426
vn -0.2935 -0.7641 -0.5744
vn -0.3009 -0.9015 0.3111
vn -0.5682 0.7235 -0.3921
vn -0.3021 -0.9531 -0.0207
vn -0.8100 0.4708 -0.3497
vn 0.7426 0.6630 -0.0947
vn 0.9537 0.2180 -0.2070
vn 0.4683 -0.1922 0.8624
vn 0.2853 -0.0786 -0.9552
vn -0.9906 0.1351 -0.0208
vn -0.2460 -0.2783 0.9285
vn -0.1163 -0.2110 0.9706
vn -0.8237 0.2022 0.5298
vn -0.5350 -0.4758 0.6981
vn -0.6937 -0.2798 0.6637
vn -0.7062 0.6506 -0.2793
vn -0.7111 0.5674 -0.4152
vn -0.5754 0.2395 0.7820
vn 0.9990 -0.0432 -0.0145
vn -0.8475 0.4332 -0.3066
vn -0.6547 0.6113 -0.4447
vn -0.7227 -0.6814 -0.1158
vn -0.3855 -0.9075 0.1666
vn -0.8576 -0.5143 -0.0039
vn -0.2057 0.2515 0.9457
vn -0.5058 0.2530 -0.8247
vn -0.4211 -0.2017 -0.8843
vn -0.2758 0.3503 -0.8951
vn -0.2385 -0.1162 -0.9642
vn -0.3059 -0.0471 -0.9509
vn -0.4658 0.2442 -0.8505
vn 0.0203 -0.0811 -0.9965
vn -0.4440 -0.0321 -0.8955
vn -0.2344 -0.4553 -0.8590
vn -0.0298 0.1158 -0.9928
vn -0.2424 -0.2245 -0.9438
vn 0.1690 -0.1450 -0.9749
vn -0.2029 0.4752 -0.8562
vn -0.5157 -0.0917 -0.8519
vn -0.3425 -0.1128 -0.9327
vn -0.2364 0.0141 -0.9716
vn -0.0216 -0.6195 -0.7847
vn 0.4031 0.4519 -0.7958
vn -0.3858 0.2629 -0.8843
vn 0.4713 0.2341 -0.8503
vn -0.6322 -0.0140 0.7746
vn -0.0805 -0.8447 -0.5291
vn 0.3141 -0.7797 -0.5417
vn 0.3639 0.1026 0.9258
vn 0.3325 -0.0161 0.9430
vn 0.1535 0.1944 0.9688
vn 0.2293 -0.0026 0.9734
vn 0.2703 0.2152 0.9384
vn 0.8487 0.4906 0.1974
vn 0.9389 0.1582 -0.3057
vn 0.2441 0.5353 -0.8086
vn -0.5364 -0.5436 -0.6456
vn -0.1109 -0.3511 0.9298
vn -0.9627 0.0620 0.2633
vn -0.9340 0.0155 0.3569
vn -0.4482 -0.7463 0.4920
vn -0.3889 -0.7860 0.4806
vn 0.9676 -0.2095 0.1411
vn 0.9210 -0.3550 -0.1607
vn -0.7229 0.2661 -0.6377
vn 0.8897 -0.4254 -0.1656
vn -0.9301 -0.3447 -0.1270
vn -0.9240 0.0720 -0.3757
vn -0.9501 0.0236 -0.3110
vn -0.9968 -0.0034 -0.0793
vn -0.8143 -0.1300 -0.5657
vn -0.9753 0.1796 -0.1285
vn -0.9121 -0.1943 -0.3610
vn -0.7759 0.0918 -0.6241
vn -0.9395 -0.1454 -0.3100
vn -0.9150 -0.1881 -0.3569
vn -0.2655 -0.4222 -0.8667
vn 0.1720 -0.8219 -0.5431
vn -0.0002 -1.0000 -0.0008
vn 0.3485 -0.8992 0.2646
vn 0.4236 -0.8348 0.3517
vn 0.5721 -0.7413 0.3509
vn 0.1559 0.8992 0.4087
vn 0.2629 0.9569 0.1235
vn -0.0151 0.9899 0.1413
vn -0.0241 0.9867 0.1608
vn 0.0387 0.8591 -0.5104
vn 0.0187 0.8982 0.4391
vn -0.0908 0.9958 -0.0078
vn 0.4249 0.8284 0.3650
vn -0.5986 0.4590 0.6565
vn -0.1011 0.1099 0.9888
vn 0.0610 0.4560 0.8879
vn -0.0906 0.4454 0.8908
vn 0.1038 0.3549 -0.9291
vn -0.1620 0.2348 0.9585
vn 0.0306 -0.1567 0.9872
vn 0.4787 0.4316 0.7646
vn 0.0659 0.4770 0.8764
vn 0.2581 0.2261 0.9393
vn -0.1151 0.3980 0.9101
vn -0.1162 0.3971 0.9104
vn -0.1896 0.4513 -0.8720
vn 0.7657 0.4776 -0.4308
vn -0.3348 0.1378 -0.9322
vn 0.7017 0.5465 -0.4572
vn 0.9693 -0.2425 0.0418
vn 0.9453 -0.3255 -0.0235
vn 0.2275 -0.1166 -0.9668
vn 0.3939 0.2082 -0.8952
vn 0.0985 -0.2641 -0.9595
vn 0.4058 0.1168 -0.9065
vn 0.1979 0.0467 -0.9791
vn -0.4855 -0.3455 -0.8031
vn -0.5939 -0.2983 -0.7472
vn -0.8077 -0.0617 0.5864
vn -0.4522 0.7916 -0.4109
vn -0.3651 0.7925 -0.4886
vn -0.3025 0.9332 -0.1939
vn -0.9007 0.1519 0.4070
vn -0.7580 -0.1886 0.6244
vn 0.8029 0.0806 0.5907
vn -0.7451 0.3007 0.5953
vn -0.5446 0.7034 0.4568
vn -0.3160 0.7729 0.5503
vn -0.4312 -0.2402 -0.8697
vn 0.8403 0.2787 0.4650
vn -0.5248 -0.0236 -0.8509
vn -0.4836 -0.0337 -0.8747
vn 0.4787 -0.1555 0.8641
vn 0.7292 -0.4394 0.5245
vn 0.5140 -0.1512 0.8444
vn 0.4371 0.2452 0.8653
vn 0.5566 -0.0945 0.8254
vn 0.7417 0.1867 0.6442
vn 0.8926 0.3670 0.2620
vn 0.4300 0.3784 0.8197
vn 0.8620 0.2140 0.4596
vn 0.9342 0.3376 0.1150
vn 0.9583 0.2773 -0.0693
vn -0.1471 -0.9865 -0.0713
vn 0.7128 -0.3278 -0.6200
vn 0.7985 0.1294 -0.5880
vn -0.1242 0.8376 0.5321
vn -0.0451 0.9889 0.1413
vn 0.1825 0.3532 -0.9176
vn 0.0271 0.8041 -0.5939
vn 0.3469 0.8193 -0.4565
vn 0.0151 0.8081 -0.5889
vn 0.0518 0.3438 -0.9376
vn -0.2110 0.5784 -0.7880
vn 0.0165 0.8160 0.5779
vn 0.0649 0.4780 0.8760
f 1//1 2//1 3//1
f 4//2 5//2 6//2
f 7//3 8//3 9//3
f 10//4 11//4 12//4
f 13//5 14//5 15//5
f 16//6 17//6 18//6
f 19//7 20//7 21//7
f 22//8 23//8 24//8
f 23//9 25//9 24//9
f 26//10 27//10 28//10
f 29//11 30//11 11//11
f 31//12 32//12 33//12
f 34//13 35//13 36//13
f 33//14 28//14 37//14
f 33//15 26//15 28//15
f 38//16 39//16 40//16
f 41//17 42//17 43//17
f 2//18 44//18 3//18
f 45//19 46//19 47//19
f 48//20 49//20 50//20
f 51//21 52//21 53//21
f 54//22 55//22 56//22
f 57//23 32//23 31//23
f 58//24 59//24 4//24
f 59//25 60//25 4//25
f 61//26 62//26 23//26
f 63//27 64//27 65//27
f 66//28 45//28 67//28
f 24//29 68//29 69//29
f 70//30 24//30 71//30
f 8//31 7//31 72//31
f 21//32 20//32 70//32
f 73//33 68//33 74//33
f 75//34 9//34 76//34
f 27//35 26//35 77//35
f 78//36 79//36 38//36
f 80//37 81//37 55//37
f 82//38 74//38 83//38
f 84//39 85//39 86//39
f 87//40 33//40 32//40
f 66//41 88//41 89//41
f 90//42 69//42 91//42
f 92//43 63//43 93//43
f 63//44 61//44 93//44
f 25//45 94//45 95//45
f 96//46 97//46 98//46
f 79//47 99//47 14//47
f 100//48 55//48 101//48
f 102//49 103//49 76//49
f 102//50 104//50 105//50
f 59//51 58//51 105//51
f 58//52 106//52 105//52
f 63//53 107//53 61//53
f 28//54 108//54 10//54
f 109//55 110//55 41//55
f 111//56 49//56 112//56
f 77//57 40//57 110//57
f 88//58 66//58 113//58
f 53//59 73//59 82//59
f 114//60 115//60 39//60
f 116//61 117//61 118//61
f 119//62 120//62 86//62
f 121//63 54//63 122//63
f 123//64 72//64 7//64
f 123//65 7//65 124//65
f 113//66 67//66 125//66
f 125//67 67//67 45//67
f 126//68 127//68 88//68
f 43//69 6//69 128//69
f 58//70 4//70 106//70
f 4//71 6//71 106//71
f 5//72 4//72 127//72
f 127//73 89//73 88//73
f 12//74 71//74 95//74
f 95//75 129//75 12//75
f 100//76 113//76 125//76
f 101//77 50//77 53//77
f 53//78 52//78 101//78
f 102//79 13//79 103//79
f 115//80 114//80 13//80
f 102//81 115//81 13//81
f 129//82 123//82 130//82
f 129//83 130//83 12//83
f 130//84 10//84 12//84
f 118//85 14//85 131//85
f 118//86 16//86 14//86
f 55//87 47//87 56//87
f 13//88 15//88 103//88
f 103//89 15//89 76//89
f 14//90 13//90 131//90
f 38//91 16//91 18//91
f 38//92 79//92 16//92
f 47//93 55//93 125//93
f 55//94 100//94 125//94
f 21//95 34//95 19//95
f 22//96 132//96 23//96
f 132//97 133//97 23//97
f 62//98 25//98 23//98
f 134//99 51//99 83//99
f 108//100 28//100 135//100
f 27//101 135//101 28//101
f 14//102 98//102 15//102
f 98//103 76//103 15//103
f 98//104 96//104 76//104
f 48//105 50//105 101//105
f 48//106 101//106 112//106
f 31//107 33//107 37//107
f 57//108 31//108 136//108
f 130//109 37//109 10//109
f 130//110 31//110 37//110
f 136//111 31//111 130//111
f 75//112 7//112 9//112
f 75//113 124//113 7//113
f 69//114 90//114 132//114
f 69//115 132//115 22//115
f 109//116 126//116 36//116
f 18//117 39//117 38//117
f 18//118 137//118 39//118
f 126//119 41//119 43//119
f 126//120 109//120 41//120
f 123//121 124//121 136//121
f 123//122 136//122 130//122
f 18//123 17//123 137//123
f 47//124 122//124 56//124
f 46//125 138//125 47//125
f 47//126 138//126 122//126
f 122//127 54//127 56//127
f 138//128 121//128 122//128
f 45//129 47//129 125//129
f 70//130 20//130 74//130
f 39//131 137//131 114//131
f 137//132 139//132 114//132
f 112//133 49//133 48//133
f 82//134 51//134 53//134
f 82//135 83//135 51//135
f 45//136 66//136 80//136
f 45//137 80//137 46//137
f 87//138 32//138 57//138
f 94//139 107//139 72//139
f 107//140 140//140 72//140
f 13//141 114//141 116//141
f 139//142 116//142 114//142
f 133//143 61//143 23//143
f 133//144 93//144 61//144
f 107//145 94//145 62//145
f 63//146 92//146 64//146
f 61//147 107//147 62//147
f 64//148 141//148 65//148
f 139//149 137//149 17//149
f 139//150 17//150 117//150
f 113//151 66//151 67//151
f 131//152 13//152 116//152
f 22//153 24//153 69//153
f 74//154 20//154 83//154
f 20//155 19//155 83//155
f 70//156 68//156 24//156
f 95//157 71//157 25//157
f 71//158 24//158 25//158
f 140//159 8//159 72//159
f 8//160 140//160 142//160
f 136//161 124//161 75//161
f 138//162 46//162 143//162
f 144//163 145//163 146//163
f 145//164 144//164 147//164
f 68//165 91//165 69//165
f 68//166 70//166 74//166
f 68//167 73//167 91//167
f 40//168 78//168 38//168
f 9//34 148//34 76//34
f 127//169 4//169 60//169
f 80//170 55//170 54//170
f 64//171 92//171 146//171
f 132//172 60//172 133//172
f 90//173 149//173 1//173
f 132//174 90//174 150//174
f 90//175 1//175 3//175
f 138//176 54//176 121//176
f 151//177 93//177 60//177
f 144//178 93//178 152//178
f 152//179 93//179 151//179
f 3//180 89//180 90//180
f 90//181 89//181 127//181
f 80//182 54//182 138//182
f 144//183 92//183 93//183
f 60//184 132//184 150//184
f 60//185 93//185 133//185
f 3//186 81//186 80//186
f 92//187 144//187 146//187
f 3//188 80//188 89//188
f 73//189 74//189 82//189
f 2//190 120//190 44//190
f 119//191 44//191 120//191
f 33//192 87//192 26//192
f 153//193 77//193 154//193
f 26//194 155//194 77//194
f 155//195 154//195 77//195
f 26//196 87//196 155//196
f 85//197 81//197 86//197
f 89//198 80//198 66//198
f 55//199 81//199 85//199
f 149//200 90//200 91//200
f 99//201 79//201 78//201
f 94//202 72//202 129//202
f 72//203 123//203 129//203
f 129//204 95//204 94//204
f 25//205 62//205 94//205
f 86//206 44//206 119//206
f 81//207 3//207 44//207
f 53//208 1//208 149//208
f 81//209 44//209 86//209
f 1//210 50//210 2//210
f 91//211 53//211 149//211
f 49//212 120//212 2//212
f 91//213 73//213 53//213
f 53//214 50//214 1//214
f 50//215 49//215 2//215
f 151//216 60//216 59//216
f 156//217 151//217 157//217
f 152//218 151//218 156//218
f 151//219 59//219 157//219
f 138//220 143//220 80//220
f 80//221 143//221 46//221
f 154//34 96//34 14//34
f 87//34 57//34 155//34
f 136//34 75//34 57//34
f 76//34 57//34 75//34
f 57//34 154//34 155//34
f 96//34 57//34 76//34
f 154//34 57//34 96//34
f 96//222 98//222 14//222
f 154//223 14//223 153//223
f 14//224 16//224 79//224
f 14//225 99//225 153//225
f 101//226 85//226 112//226
f 113//227 100//227 134//227
f 100//228 52//228 134//228
f 52//229 51//229 134//229
f 55//230 85//230 101//230
f 112//231 85//231 111//231
f 101//232 52//232 100//232
f 111//233 85//233 84//233
f 11//234 108//234 29//234
f 108//235 135//235 29//235
f 110//236 30//236 135//236
f 34//237 30//237 35//237
f 157//238 148//238 147//238
f 21//239 70//239 71//239
f 71//240 12//240 11//240
f 135//241 30//241 29//241
f 30//242 110//242 109//242
f 21//243 71//243 34//243
f 30//244 34//244 11//244
f 71//245 11//245 34//245
f 157//246 104//246 148//246
f 115//247 6//247 42//247
f 148//248 145//248 147//248
f 6//249 43//249 42//249
f 17//250 16//250 117//250
f 16//251 118//251 117//251
f 106//252 102//252 105//252
f 106//253 6//253 115//253
f 76//254 104//254 102//254
f 115//255 102//255 106//255
f 104//256 76//256 148//256
f 104//257 157//257 105//257
f 105//258 157//258 59//258
f 140//259 107//259 63//259
f 144//260 156//260 147//260
f 157//261 147//261 156//261
f 156//262 144//262 152//262
f 108//263 11//263 10//263
f 10//264 37//264 28//264
f 40//265 39//265 110//265
f 65//266 141//266 142//266
f 63//267 142//267 140//267
f 63//268 65//268 142//268
f 86//269 120//269 49//269
f 41//270 110//270 39//270
f 84//271 49//271 111//271
f 84//272 86//272 49//272
f 135//273 77//273 110//273
f 153//274 99//274 78//274
f 77//275 78//275 40//275
f 77//276 153//276 78//276
f 135//277 27//277 77//277
f 34//278 134//278 19//278
f 134//279 88//279 113//279
f 134//280 83//280 19//280
f 134//281 34//281 88//281
f 42//282 41//282 39//282
f 115//283 42//283 39//283
f 64//34 142//34 141//34
f 9//284 8//284 142//284
f 142//34 64//34 146//34
f 146//34 148//34 142//34
f 148//34 9//34 142//34
f 148//34 146//34 145//34
f 131//285 116//285 118//285
f 139//286 117//286 116//286
f 88//287 34//287 36//287
f 126//288 88//288 36//288
f 6//289 5//289 128//289
f 126//290 5//290 127//290
f 126//291 43//291 128//291
f 5//292 126//292 128//292
f 127//293 60//293 150//293
f 90//294 127//294 150//294
f 35//295 109//295 36//295
f 30//296 109//296 35//296
